<svg width="240" height="80" viewBox="0 0 240 80" fill="none" xmlns="http://www.w3.org/2000/svg">
  <g transform="translate(0, 0)">
    <circle cx="40" cy="40" r="40" fill="#14191F"/>
    <circle cx="40" cy="40" r="36" stroke="#F8BF23" stroke-width="2"/>
    <circle cx="40" cy="40" r="27" fill="#0D4F2B"/>
    <circle cx="22" cy="30" r="5" fill="#F8BF23"/>
    <circle cx="32" cy="40" r="5" fill="#E74C3C"/>
    <circle cx="48" cy="30" r="5" fill="#3498DB"/>
    <circle cx="40" cy="20" r="5" fill="#1ABC9C"/>
    <rect x="17" y="47" width="40" height="7" rx="3.5" fill="#2D3748"/>
    <rect x="17" y="57" width="27" height="4" rx="2" fill="#2D3748"/>
  </g>
  <g transform="translate(90, 25)">
    <path d="M5.824 29.44C4.9 29.44 4.084 29.248 3.376 28.864C2.668 28.48 2.112 27.944 1.708 27.256C1.304 26.552 1.104 25.744 1.108 24.832C1.108 23.904 1.308 23.096 1.708 22.408C2.112 21.704 2.668 21.164 3.376 20.788C4.084 20.396 4.892 20.2 5.8 20.2C6.584 20.2 7.288 20.34 7.912 20.62C8.536 20.9 9.06 21.288 9.484 21.784L8.288 22.86C7.668 22.196 6.864 21.864 5.872 21.864C5.268 21.864 4.728 21.996 4.252 22.26C3.776 22.524 3.408 22.892 3.148 23.364C2.888 23.836 2.756 24.384 2.752 25.008V25.096C2.752 25.704 2.88 26.248 3.136 26.728C3.392 27.192 3.76 27.56 4.24 27.832C4.72 28.088 5.288 28.216 5.944 28.216C6.784 28.216 7.5 27.964 8.092 27.46L8.092 25.932H5.68V24.436H9.652V28.3C9.204 28.652 8.672 28.932 8.056 29.14C7.44 29.34 6.672 29.44 5.824 29.44ZM16.4495 29.44C15.5255 29.44 14.7095 29.232 14.0015 28.816C13.3095 28.4 12.7695 27.848 12.3815 27.16C11.9935 26.456 11.7995 25.664 11.7995 24.784C11.7995 23.904 11.9935 23.124 12.3815 22.444C12.7855 21.748 13.3415 21.196 14.0495 20.788C14.7575 20.38 15.5815 20.176 16.5215 20.176C17.4615 20.176 18.2855 20.38 18.9935 20.788C19.7015 21.196 20.2495 21.748 20.6375 22.444C21.0415 23.124 21.2435 23.904 21.2435 24.784C21.2435 25.664 21.0495 26.456 20.6615 27.16C20.2735 27.848 19.7335 28.4 19.0415 28.816C18.3495 29.232 17.4695 29.44 16.4495 29.44ZM16.4495 27.964C17.0255 27.964 17.5175 27.836 17.9255 27.58C18.3335 27.324 18.6455 26.956 18.8615 26.476C19.0775 25.996 19.1855 25.432 19.1855 24.784C19.1855 24.136 19.0775 23.58 18.8615 23.116C18.6455 22.636 18.3335 22.272 17.9255 22.024C17.5175 21.76 17.0335 21.628 16.4735 21.628C15.8975 21.628 15.3895 21.76 14.9495 22.024C14.5255 22.272 14.1975 22.636 13.9655 23.116C13.7495 23.58 13.6415 24.136 13.6415 24.784C13.6415 25.432 13.7495 25.996 13.9655 26.476C14.1815 26.956 14.4975 27.324 14.9135 27.58C15.3295 27.836 15.8495 27.964 16.4495 27.964ZM27.2574 29.44C26.3334 29.44 25.5174 29.232 24.8094 28.816C24.1174 28.4 23.5774 27.848 23.1894 27.16C22.8014 26.456 22.6074 25.664 22.6074 24.784C22.6074 23.904 22.8014 23.124 23.1894 22.444C23.5934 21.748 24.1494 21.196 24.8574 20.788C25.5654 20.38 26.3894 20.176 27.3294 20.176C28.2694 20.176 29.0934 20.38 29.8014 20.788C30.5094 21.196 31.0574 21.748 31.4454 22.444C31.8494 23.124 32.0514 23.904 32.0514 24.784C32.0514 25.664 31.8574 26.456 31.4694 27.16C31.0814 27.848 30.5414 28.4 29.8494 28.816C29.1574 29.232 28.2774 29.44 27.2574 29.44ZM27.2574 27.964C27.8334 27.964 28.3254 27.836 28.7334 27.58C29.1414 27.324 29.4534 26.956 29.6694 26.476C29.8854 25.996 29.9934 25.432 29.9934 24.784C29.9934 24.136 29.8854 23.58 29.6694 23.116C29.4534 22.636 29.1414 22.272 28.7334 22.024C28.3254 21.76 27.8414 21.628 27.2814 21.628C26.7054 21.628 26.1974 21.76 25.7574 22.024C25.3334 22.272 25.0054 22.636 24.7734 23.116C24.5574 23.58 24.4494 24.136 24.4494 24.784C24.4494 25.432 24.5574 25.996 24.7734 26.476C24.9894 26.956 25.3054 27.324 25.7214 27.58C26.1374 27.836 26.6574 27.964 27.2574 27.964ZM37.7953 29.32L33.7073 20.32H35.8533L38.9233 27.364H38.0993L41.1933 20.32H43.2913L39.1793 29.32H37.7953ZM48.9903 29.32V22.044H45.9923V20.32H54.0203V22.044H51.0223V29.32H48.9903ZM60.259 29.32V26.224H56.291V24.64H60.259V21.628H56.291V20.32H62.291V29.32H60.259ZM68.2254 29.32V21.664H65.0114V20.32H73.2994V21.664H70.0854V29.32H68.2254ZM75.9305 20.32H78.6665C79.8185 20.32 80.7665 20.508 81.5105 20.884C82.2545 21.26 82.8065 21.808 83.1665 22.528C83.5265 23.232 83.7065 24.06 83.7065 25.008C83.7065 25.956 83.5265 26.784 83.1665 27.488C82.8065 28.192 82.2545 28.736 81.5105 29.12C80.7665 29.488 79.8105 29.672 78.6425 29.672C78.0025 29.672 77.3345 29.628 76.6385 29.54C75.9585 29.444 75.3745 29.3 74.8865 29.108V20.884C75.3745 20.692 75.9585 20.548 76.6385 20.452C77.3345 20.364 78.0025 20.32 78.6425 20.32H75.9305ZM78.9065 28.084C80.3385 28.084 81.4025 27.736 82.0985 27.04C82.7945 26.344 83.1425 25.36 83.1425 24.088C83.1425 22.816 82.7945 21.832 82.0985 21.136C81.4025 20.44 80.3385 20.092 78.9065 20.092H77.7905V28.084H78.9065ZM89.8064 29.32V20.32H96.2624V21.664H91.6664V24.088H95.9984V25.432H91.6664V27.976H96.3584V29.32H89.8064ZM107.287 29.32L107.287 20.32H112.871C113.679 20.32 114.355 20.456 114.899 20.728C115.459 20.984 115.871 21.328 116.135 21.76C116.415 22.192 116.555 22.668 116.555 23.188C116.555 23.708 116.419 24.188 116.147 24.628C115.875 25.052 115.475 25.4 114.947 25.672C114.419 25.928 113.771 26.056 113.003 26.056H109.147V29.32H107.287ZM114.143 28.06L112.775 25.372C113.135 25.34 113.467 25.248 113.771 25.096C114.075 24.944 114.315 24.748 114.491 24.508C114.683 24.252 114.779 23.96 114.779 23.632C114.779 23.304 114.683 23.02 114.491 22.78C114.315 22.524 114.063 22.32 113.735 22.168C113.407 22.016 113.011 21.94 112.547 21.94H109.147V24.436H112.475C112.827 24.436 113.127 24.504 113.375 24.64C113.639 24.776 113.771 24.992 113.771 25.288C113.771 25.592 113.635 25.812 113.363 25.948C113.091 26.068 112.767 26.128 112.391 26.128H111.803L114.143 28.06ZM122.697 29.32V20.32H124.557V29.32H122.697ZM131.048 29.44C130.16 29.44 129.36 29.24 128.648 28.84C127.936 28.424 127.376 27.876 126.968 27.196C126.576 26.5 126.38 25.708 126.38 24.82C126.38 23.932 126.576 23.144 126.968 22.456C127.376 21.768 127.94 21.22 128.66 20.812C129.38 20.388 130.196 20.176 131.108 20.176C131.796 20.176 132.436 20.288 133.028 20.512C133.636 20.736 134.156 21.052 134.588 21.46L133.472 22.492C133.168 22.22 132.84 22.008 132.488 21.856C132.136 21.704 131.752 21.628 131.336 21.628C130.76 21.628 130.256 21.76 129.824 22.024C129.392 22.272 129.056 22.62 128.816 23.068C128.592 23.516 128.48 24.044 128.48 24.652V24.796C128.48 25.404 128.596 25.932 128.828 26.38C129.06 26.828 129.396 27.18 129.836 27.436C130.276 27.676 130.78 27.796 131.348 27.796C131.78 27.796 132.156 27.72 132.476 27.568C132.796 27.416 133.1 27.208 133.388 26.944L134.504 28.06C134.04 28.484 133.5 28.8 132.884 29.008C132.284 29.296 131.688 29.44 131.048 29.44Z" fill="#F8BF23"/>
  </g>
</svg>